<svg width="240" height="27" viewBox="0 0 240 27" fill="none" xmlns="http://www.w3.org/2000/svg">
<path fill-rule="evenodd" clip-rule="evenodd" d="M25.8414 0.269141L26.9697 0L35.7964 17.4482L35.5219 18.2551L18.1557 26.5713L17.6407 26.5713L0.274524 18.2557L0 17.4488L8.82676 0.00053202L9.95501 0.269673V16.2948L17.4802 8.89454L18.3163 8.89453L25.8414 16.2944V0.269141ZM26.68 18.3131L20.9148 23.928L32.6392 18.3135L26.68 18.3131ZM34.2946 17.1211L27.0339 17.1207V2.76855L34.2946 17.1211ZM18.4944 24.6206L25.5852 17.7148L18.4944 10.7421V24.6206ZM17.302 10.7422V24.6207L10.2112 17.7153L17.302 10.7422ZM8.76256 17.1212L1.50185 17.1216L8.76256 2.76908V17.1212ZM3.15736 18.314L14.8816 23.928L9.11645 18.3136L3.15736 18.314Z" fill="#00D64A"/>
<path d="M65.8245 18.1701L68.6393 4.97949H70.9849L67.2595 21.454H64.4723L61.5748 8.81525L58.6773 21.454H55.8626L52.1924 4.97949H54.538L57.2975 18.1701L60.3606 4.97949H62.789L65.8245 18.1701Z" fill="#00D64A"/>
<path d="M80.7109 21.454H78.4481V4.97949H80.7109V21.454Z" fill="#00D64A"/>
<path d="M98.8978 17.7286V4.97949H101.161V21.454H98.4838L92.0265 8.81525V21.454H89.7637V4.97949H92.468L98.8978 17.7286Z" fill="#00D64A"/>
<path d="M109.166 4.97949H120.674V7.15953H116.037V21.454H113.775V7.15953H109.166V4.97949Z" fill="#00D64A"/>
<path d="M138.633 4.97949V7.15953H130.962V12.1543H138.109V14.3067H130.962V19.3015H138.633V21.454H128.699V4.97949H138.633Z" fill="#00D64A"/>
<path d="M159.481 21.454H156.942L153.659 14.5551H149.823V21.454H147.56V4.97949H155.369C155.949 4.97949 156.501 5.11747 156.998 5.47621C157.356 5.72457 158.129 6.46964 158.377 6.82838C158.709 7.3251 158.847 7.90461 158.847 8.48411V11.0505C158.847 11.63 158.709 12.2095 158.377 12.7062C158.129 13.0649 157.356 13.81 156.998 14.0584C156.694 14.2791 156.391 14.3895 156.059 14.4723L159.481 21.454ZM155.121 7.15953H149.823V12.3751H155.121C155.452 12.3751 155.673 12.2647 156.059 11.8508C156.473 11.4644 156.584 11.2437 156.584 10.9401V8.59449C156.584 8.29094 156.446 8.07018 156.059 7.65625C155.673 7.26991 155.452 7.15953 155.121 7.15953Z" fill="#00D64A"/>
<path d="M174.916 14.3619L179.193 4.97949H182.063V21.454H179.8V8.62209L175.937 17.1215H173.895L170.031 8.59449V21.454H167.769V4.97949H170.639L174.916 14.3619Z" fill="#00D64A"/>
<path d="M198.609 21.5919H195.049C194.276 21.5919 193.724 21.3988 193.2 20.9296C192.841 20.6261 192.234 20.0466 191.986 19.7706C191.351 19.0808 191.13 18.584 191.13 17.6734V4.97949H193.393V17.7562C193.393 17.9769 193.586 18.2529 194.083 18.7496C194.58 19.2187 194.856 19.4395 195.076 19.4395H198.553C198.774 19.4395 199.05 19.2463 199.547 18.7496C200.044 18.2529 200.264 17.9769 200.264 17.7562V4.97949H202.527V17.6734C202.527 18.4461 202.334 18.998 201.865 19.5499C201.534 19.9086 200.954 20.4881 200.678 20.7365C199.988 21.3988 199.492 21.5919 198.609 21.5919Z" fill="#00D64A"/>
<path d="M210.533 4.97949H222.04V7.15953H217.404V21.454H215.141V7.15953H210.533V4.97949Z" fill="#00D64A"/>
<path d="M240 4.97949V7.15953H232.328V12.1543H239.475V14.3067H232.328V19.3015H240V21.454H230.065V4.97949H240Z" fill="#00D64A"/>
</svg>
